<svg xmlns="http://www.w3.org/2000/svg" width="26" height="26" viewBox="0 0 26 26">
  <path id="instagram" d="M13,0C9.472,0,9.029.016,7.642.078a9.579,9.579,0,0,0-3.157.6,6.365,6.365,0,0,0-2.3,1.5,6.381,6.381,0,0,0-1.5,2.3,9.522,9.522,0,0,0-.6,3.153C.016,9.027,0,9.469,0,13s.016,3.971.078,5.358a9.577,9.577,0,0,0,.6,3.156,6.655,6.655,0,0,0,3.8,3.8,9.544,9.544,0,0,0,3.156.6C9.027,25.984,9.469,26,13,26s3.972-.016,5.359-.078a9.6,9.6,0,0,0,3.157-.6,6.655,6.655,0,0,0,3.8-3.8,9.619,9.619,0,0,0,.6-3.156C25.984,16.973,26,16.531,26,13s-.016-3.973-.078-5.361a9.608,9.608,0,0,0-.6-3.154,6.38,6.38,0,0,0-1.5-2.3,6.355,6.355,0,0,0-2.3-1.5,9.564,9.564,0,0,0-3.157-.6C16.97.016,16.53,0,13,0h0ZM11.835,2.343H13c3.471,0,3.882.011,5.252.075a7.2,7.2,0,0,1,2.415.447,4.033,4.033,0,0,1,1.495.973,4.017,4.017,0,0,1,.972,1.495,7.14,7.14,0,0,1,.447,2.413c.063,1.37.076,1.781.076,5.25s-.013,3.882-.076,5.252a7.192,7.192,0,0,1-.447,2.413,4.309,4.309,0,0,1-2.468,2.465,7.152,7.152,0,0,1-2.413.449c-1.37.062-1.781.076-5.252.076s-3.884-.015-5.254-.076a7.181,7.181,0,0,1-2.413-.449,4.027,4.027,0,0,1-1.495-.972,4.03,4.03,0,0,1-.975-1.495,7.182,7.182,0,0,1-.447-2.413c-.062-1.37-.075-1.781-.075-5.254s.013-3.881.075-5.25a7.193,7.193,0,0,1,.449-2.415,4.033,4.033,0,0,1,.973-1.5,4.017,4.017,0,0,1,1.495-.972,7.18,7.18,0,0,1,2.413-.449c1.2-.055,1.664-.072,4.087-.073v0ZM19.94,4.5a1.56,1.56,0,1,0,1.56,1.56A1.56,1.56,0,0,0,19.94,4.5ZM13,6.325A6.677,6.677,0,1,0,19.679,13,6.676,6.676,0,0,0,13,6.325Zm0,2.342A4.334,4.334,0,1,1,8.668,13,4.334,4.334,0,0,1,13,8.666Z" fill="#fff"/>
</svg>
