<svg xmlns="http://www.w3.org/2000/svg" width="34.167" height="24" viewBox="0 0 34.167 24">
  <path id="youtube" d="M17.193,2h.19c1.755.006,10.65.07,13.048.715a4.292,4.292,0,0,1,3.022,3.032,19.335,19.335,0,0,1,.47,2.994l.021.222.047.555.017.222c.139,1.952.156,3.78.158,4.179v.16c0,.414-.021,2.366-.175,4.4l-.017.224-.019.222a21.151,21.151,0,0,1-.5,3.327,4.286,4.286,0,0,1-3.022,3.032c-2.477.666-11.893.713-13.2.715h-.3c-.66,0-3.389-.013-6.251-.111l-.363-.013-.186-.009-.365-.015L9.4,25.837a34.331,34.331,0,0,1-5.668-.555,4.286,4.286,0,0,1-3.022-3.03,21.112,21.112,0,0,1-.5-3.327L.192,18.7l-.017-.222Q.017,16.308,0,14.13v-.263c0-.459.021-2.046.137-3.8l.015-.22L.158,9.74l.017-.222.047-.555.021-.222a19.294,19.294,0,0,1,.47-2.994A4.286,4.286,0,0,1,3.735,2.714,35.058,35.058,0,0,1,9.4,2.159l.363-.015.367-.013.184-.006.365-.015q3.049-.1,6.1-.109h.412ZM13.668,8.854V19.142L22.545,14Z" transform="translate(0 -1.999)" fill="#fff"/>
</svg>
